<mxfile host="app.diagrams.net" agent="Mozilla/5.0 (Macintosh; Intel Mac OS X 10_15_7) AppleWebKit/537.36 (KHTML, like Gecko) Chrome/126.0.0.0 Safari/537.36" version="26.0.16" pages="2">
  <diagram name="Pagina-1" id="xHo8FlIO1qtZDYCPHyb3">
    <mxGraphModel dx="980" dy="690" grid="1" gridSize="10" guides="1" tooltips="1" connect="1" arrows="1" fold="1" page="1" pageScale="1" pageWidth="827" pageHeight="1169" math="0" shadow="0">
      <root>
        <mxCell id="0" />
        <mxCell id="1" parent="0" />
        <mxCell id="mPEz37Rw0iS6tKse6qjw-1" value="&lt;p style=&quot;margin:0px;margin-top:4px;text-align:center;&quot;&gt;&lt;i&gt;&amp;lt;&amp;lt;Interface&amp;gt;&amp;gt;&lt;/i&gt;&lt;br&gt;&lt;b&gt;Game&lt;/b&gt;&lt;/p&gt;&lt;hr size=&quot;1&quot; style=&quot;border-style:solid;&quot;&gt;&lt;p style=&quot;margin:0px;margin-left:4px;&quot;&gt;+ code: Code&lt;br&gt;+ board: Board&lt;/p&gt;" style="verticalAlign=top;align=left;overflow=fill;html=1;whiteSpace=wrap;rounded=1;" parent="1" vertex="1">
          <mxGeometry x="230" y="140" width="130" height="80" as="geometry" />
        </mxCell>
        <mxCell id="mPEz37Rw0iS6tKse6qjw-7" style="edgeStyle=orthogonalEdgeStyle;rounded=0;orthogonalLoop=1;jettySize=auto;html=1;exitX=0;exitY=0.5;exitDx=0;exitDy=0;entryX=1;entryY=0.5;entryDx=0;entryDy=0;endArrow=diamond;endFill=0;" parent="1" source="mPEz37Rw0iS6tKse6qjw-3" target="mPEz37Rw0iS6tKse6qjw-1" edge="1">
          <mxGeometry relative="1" as="geometry" />
        </mxCell>
        <mxCell id="mPEz37Rw0iS6tKse6qjw-3" value="&lt;p style=&quot;margin:0px;margin-top:4px;text-align:center;&quot;&gt;&lt;i&gt;&amp;lt;&amp;lt;Interface&amp;gt;&amp;gt;&lt;/i&gt;&lt;br&gt;&lt;b&gt;Code&lt;/b&gt;&lt;/p&gt;&lt;hr size=&quot;1&quot; style=&quot;border-style:solid;&quot;&gt;&lt;p style=&quot;margin:0px;margin-left:4px;&quot;&gt;+ code: Vector[PlayerStone]&lt;br&gt;&lt;/p&gt;" style="verticalAlign=top;align=left;overflow=fill;html=1;whiteSpace=wrap;rounded=1;" parent="1" vertex="1">
          <mxGeometry x="420" y="145" width="160" height="70" as="geometry" />
        </mxCell>
        <mxCell id="mPEz37Rw0iS6tKse6qjw-6" style="edgeStyle=orthogonalEdgeStyle;rounded=0;orthogonalLoop=1;jettySize=auto;html=1;entryX=0;entryY=0.5;entryDx=0;entryDy=0;exitX=0.5;exitY=0;exitDx=0;exitDy=0;endArrow=diamond;endFill=0;" parent="1" source="mPEz37Rw0iS6tKse6qjw-4" target="mPEz37Rw0iS6tKse6qjw-1" edge="1">
          <mxGeometry relative="1" as="geometry" />
        </mxCell>
        <mxCell id="mPEz37Rw0iS6tKse6qjw-4" value="&lt;p style=&quot;margin:0px;margin-top:4px;text-align:center;&quot;&gt;&lt;i&gt;&amp;lt;&amp;lt;Interface&amp;gt;&amp;gt;&lt;/i&gt;&lt;br&gt;&lt;b&gt;Board&lt;/b&gt;&lt;/p&gt;&lt;hr size=&quot;1&quot; style=&quot;border-style:solid;&quot;&gt;&lt;p style=&quot;text-align: center; margin: 0px 0px 0px 4px;&quot;&gt;+ playableMatrix: Matrix[PlayerStone]&lt;br&gt;&lt;/p&gt;&lt;p style=&quot;margin:0px;margin-left:4px;&quot;&gt;&amp;nbsp;+ hintMatrix : Matrix[HintStone]&lt;/p&gt;" style="verticalAlign=top;align=left;overflow=fill;html=1;whiteSpace=wrap;rounded=1;" parent="1" vertex="1">
          <mxGeometry x="30" y="230" width="210" height="80" as="geometry" />
        </mxCell>
        <mxCell id="mPEz37Rw0iS6tKse6qjw-5" value="«Interface»&lt;br&gt;&lt;b&gt;Matrix&lt;/b&gt;" style="html=1;whiteSpace=wrap;" parent="1" vertex="1">
          <mxGeometry x="320" y="230" width="110" height="50" as="geometry" />
        </mxCell>
        <mxCell id="V6lCJnKkUNqbyhKSyj_m-5" style="edgeStyle=orthogonalEdgeStyle;rounded=0;orthogonalLoop=1;jettySize=auto;html=1;exitX=1;exitY=0.5;exitDx=0;exitDy=0;entryX=0;entryY=0.5;entryDx=0;entryDy=0;" edge="1" parent="1" source="mPEz37Rw0iS6tKse6qjw-9" target="mPEz37Rw0iS6tKse6qjw-11">
          <mxGeometry relative="1" as="geometry" />
        </mxCell>
        <mxCell id="V6lCJnKkUNqbyhKSyj_m-6" value="of type" style="edgeLabel;html=1;align=center;verticalAlign=middle;resizable=0;points=[];" vertex="1" connectable="0" parent="V6lCJnKkUNqbyhKSyj_m-5">
          <mxGeometry x="-0.5945" y="1" relative="1" as="geometry">
            <mxPoint y="-14" as="offset" />
          </mxGeometry>
        </mxCell>
        <mxCell id="mPEz37Rw0iS6tKse6qjw-9" value="«Interface»&lt;br&gt;&lt;b&gt;Stone&lt;/b&gt;" style="html=1;whiteSpace=wrap;" parent="1" vertex="1">
          <mxGeometry x="330" y="350" width="110" height="50" as="geometry" />
        </mxCell>
        <mxCell id="mPEz37Rw0iS6tKse6qjw-10" value="&lt;p style=&quot;margin:0px;margin-top:4px;text-align:center;&quot;&gt;&lt;i&gt;&amp;lt;&amp;lt;Enum&amp;gt;&amp;gt;&lt;/i&gt;&lt;br&gt;&lt;b&gt;HintStone&lt;/b&gt;&lt;/p&gt;&lt;hr size=&quot;1&quot; style=&quot;border-style:solid;&quot;&gt;&lt;p style=&quot;margin:0px;margin-left:4px;&quot;&gt;+ RED&lt;/p&gt;&lt;p style=&quot;margin:0px;margin-left:4px;&quot;&gt;+ WHITE&lt;/p&gt;&lt;p style=&quot;margin:0px;margin-left:4px;&quot;&gt;+ EMPTY&lt;/p&gt;" style="verticalAlign=top;align=left;overflow=fill;html=1;whiteSpace=wrap;rounded=1;" parent="1" vertex="1">
          <mxGeometry x="110" y="325" width="130" height="100" as="geometry" />
        </mxCell>
        <mxCell id="mPEz37Rw0iS6tKse6qjw-11" value="&lt;p style=&quot;margin:0px;margin-top:4px;text-align:center;&quot;&gt;&lt;i&gt;&amp;lt;&amp;lt;Enum&amp;gt;&amp;gt;&lt;/i&gt;&lt;br&gt;&lt;b&gt;PlayerStone&lt;/b&gt;&lt;/p&gt;&lt;hr size=&quot;1&quot; style=&quot;border-style:solid;&quot;&gt;&lt;p style=&quot;margin:0px;margin-left:4px;&quot;&gt;+ RED&lt;/p&gt;&lt;p style=&quot;margin:0px;margin-left:4px;&quot;&gt;+ GREEN&lt;/p&gt;&lt;p style=&quot;margin:0px;margin-left:4px;&quot;&gt;+ BLUE&lt;/p&gt;&lt;p style=&quot;margin:0px;margin-left:4px;&quot;&gt;+ YELLOW&lt;/p&gt;&lt;p style=&quot;margin:0px;margin-left:4px;&quot;&gt;+ WHITE&lt;/p&gt;&lt;p style=&quot;margin:0px;margin-left:4px;&quot;&gt;+ PURPLE&lt;/p&gt;&lt;p style=&quot;margin:0px;margin-left:4px;&quot;&gt;+ EMPTY&lt;/p&gt;" style="verticalAlign=top;align=left;overflow=fill;html=1;whiteSpace=wrap;rounded=1;" parent="1" vertex="1">
          <mxGeometry x="540" y="240" width="130" height="160" as="geometry" />
        </mxCell>
        <mxCell id="mPEz37Rw0iS6tKse6qjw-21" style="edgeStyle=orthogonalEdgeStyle;rounded=0;orthogonalLoop=1;jettySize=auto;html=1;exitX=0.631;exitY=1;exitDx=0;exitDy=0;exitPerimeter=0;endArrow=none;startFill=0;startArrow=diamond;" parent="1" source="mPEz37Rw0iS6tKse6qjw-3" edge="1">
          <mxGeometry relative="1" as="geometry">
            <mxPoint x="430" y="350" as="targetPoint" />
            <Array as="points">
              <mxPoint x="515" y="288" />
              <mxPoint x="430" y="288" />
              <mxPoint x="430" y="350" />
            </Array>
          </mxGeometry>
        </mxCell>
        <mxCell id="V6lCJnKkUNqbyhKSyj_m-8" value="4..6" style="edgeLabel;html=1;align=center;verticalAlign=middle;resizable=0;points=[];" vertex="1" connectable="0" parent="mPEz37Rw0iS6tKse6qjw-21">
          <mxGeometry x="0.919" y="1" relative="1" as="geometry">
            <mxPoint x="-17" as="offset" />
          </mxGeometry>
        </mxCell>
        <mxCell id="mPEz37Rw0iS6tKse6qjw-23" style="edgeStyle=orthogonalEdgeStyle;rounded=0;orthogonalLoop=1;jettySize=auto;html=1;entryX=0.994;entryY=0.386;entryDx=0;entryDy=0;entryPerimeter=0;endArrow=diamond;endFill=0;" parent="1" target="mPEz37Rw0iS6tKse6qjw-4" edge="1">
          <mxGeometry relative="1" as="geometry">
            <mxPoint x="320" y="260" as="sourcePoint" />
          </mxGeometry>
        </mxCell>
        <mxCell id="mPEz37Rw0iS6tKse6qjw-24" value="contains" style="edgeLabel;html=1;align=center;verticalAlign=middle;resizable=0;points=[];" parent="mPEz37Rw0iS6tKse6qjw-23" vertex="1" connectable="0">
          <mxGeometry x="0.2787" y="-2" relative="1" as="geometry">
            <mxPoint x="8" y="-8" as="offset" />
          </mxGeometry>
        </mxCell>
        <mxCell id="mPEz37Rw0iS6tKse6qjw-25" value="2" style="edgeLabel;html=1;align=center;verticalAlign=middle;resizable=0;points=[];" parent="mPEz37Rw0iS6tKse6qjw-23" vertex="1" connectable="0">
          <mxGeometry x="-0.7323" y="-1" relative="1" as="geometry">
            <mxPoint y="11" as="offset" />
          </mxGeometry>
        </mxCell>
        <mxCell id="V6lCJnKkUNqbyhKSyj_m-2" style="edgeStyle=orthogonalEdgeStyle;rounded=0;orthogonalLoop=1;jettySize=auto;html=1;exitX=0.5;exitY=1;exitDx=0;exitDy=0;entryX=0.223;entryY=0.001;entryDx=0;entryDy=0;entryPerimeter=0;endArrow=none;startFill=0;startArrow=diamond;" edge="1" parent="1" source="mPEz37Rw0iS6tKse6qjw-5" target="mPEz37Rw0iS6tKse6qjw-9">
          <mxGeometry relative="1" as="geometry" />
        </mxCell>
        <mxCell id="V6lCJnKkUNqbyhKSyj_m-9" value="30..40" style="edgeLabel;html=1;align=center;verticalAlign=middle;resizable=0;points=[];" vertex="1" connectable="0" parent="V6lCJnKkUNqbyhKSyj_m-2">
          <mxGeometry x="0.7286" relative="1" as="geometry">
            <mxPoint x="-25" y="2" as="offset" />
          </mxGeometry>
        </mxCell>
        <mxCell id="V6lCJnKkUNqbyhKSyj_m-3" style="edgeStyle=orthogonalEdgeStyle;rounded=0;orthogonalLoop=1;jettySize=auto;html=1;exitX=0;exitY=0.5;exitDx=0;exitDy=0;entryX=1;entryY=0.5;entryDx=0;entryDy=0;" edge="1" parent="1" source="mPEz37Rw0iS6tKse6qjw-9" target="mPEz37Rw0iS6tKse6qjw-10">
          <mxGeometry relative="1" as="geometry">
            <mxPoint x="240" y="390" as="targetPoint" />
          </mxGeometry>
        </mxCell>
        <mxCell id="V6lCJnKkUNqbyhKSyj_m-4" value="of type" style="edgeLabel;html=1;align=center;verticalAlign=middle;resizable=0;points=[];" vertex="1" connectable="0" parent="V6lCJnKkUNqbyhKSyj_m-3">
          <mxGeometry x="0.0643" y="-1" relative="1" as="geometry">
            <mxPoint x="-2" y="-9" as="offset" />
          </mxGeometry>
        </mxCell>
      </root>
    </mxGraphModel>
  </diagram>
  <diagram id="ZUjTW4S8YEPIOMQfx-N9" name="Pagina-2">
    <mxGraphModel dx="733" dy="642" grid="1" gridSize="10" guides="1" tooltips="1" connect="1" arrows="1" fold="1" page="1" pageScale="1" pageWidth="827" pageHeight="1169" math="0" shadow="0">
      <root>
        <mxCell id="0" />
        <mxCell id="1" parent="0" />
        <mxCell id="Vg_pcemnxjzKTwLoONJ--1" value="&lt;span style=&quot;font-weight: normal;&quot;&gt;view&lt;/span&gt;" style="shape=folder;fontStyle=1;spacingTop=10;tabWidth=40;tabHeight=14;tabPosition=left;html=1;whiteSpace=wrap;gradientColor=none;perimeter=rectanglePerimeter;shadow=1;" vertex="1" parent="1">
          <mxGeometry x="70" y="240" width="120" height="80" as="geometry" />
        </mxCell>
        <mxCell id="Vg_pcemnxjzKTwLoONJ--2" value="&lt;span style=&quot;font-weight: normal;&quot;&gt;controller&lt;/span&gt;" style="shape=folder;fontStyle=1;spacingTop=10;tabWidth=40;tabHeight=14;tabPosition=left;html=1;whiteSpace=wrap;gradientColor=none;perimeter=rectanglePerimeter;shadow=1;" vertex="1" parent="1">
          <mxGeometry x="310" y="240" width="120" height="80" as="geometry" />
        </mxCell>
        <mxCell id="Vg_pcemnxjzKTwLoONJ--3" value="&lt;span style=&quot;font-weight: normal;&quot;&gt;model&lt;/span&gt;" style="shape=folder;fontStyle=1;spacingTop=10;tabWidth=40;tabHeight=14;tabPosition=left;html=1;whiteSpace=wrap;gradientColor=none;perimeter=rectanglePerimeter;shadow=1;" vertex="1" parent="1">
          <mxGeometry x="550" y="240" width="120" height="80" as="geometry" />
        </mxCell>
        <mxCell id="Vg_pcemnxjzKTwLoONJ--4" style="edgeStyle=orthogonalEdgeStyle;rounded=0;orthogonalLoop=1;jettySize=auto;html=1;exitX=0;exitY=0;exitDx=120;exitDy=63.5;exitPerimeter=0;entryX=0;entryY=0;entryDx=0;entryDy=63.5;entryPerimeter=0;" edge="1" parent="1" source="Vg_pcemnxjzKTwLoONJ--1" target="Vg_pcemnxjzKTwLoONJ--2">
          <mxGeometry relative="1" as="geometry" />
        </mxCell>
        <mxCell id="Vg_pcemnxjzKTwLoONJ--5" value="interact" style="edgeLabel;html=1;align=center;verticalAlign=middle;resizable=0;points=[];" vertex="1" connectable="0" parent="Vg_pcemnxjzKTwLoONJ--4">
          <mxGeometry x="-0.0333" y="-2" relative="1" as="geometry">
            <mxPoint x="2" y="-10" as="offset" />
          </mxGeometry>
        </mxCell>
        <mxCell id="Vg_pcemnxjzKTwLoONJ--6" style="edgeStyle=orthogonalEdgeStyle;rounded=0;orthogonalLoop=1;jettySize=auto;html=1;exitX=0;exitY=0;exitDx=0;exitDy=30.5;exitPerimeter=0;entryX=0;entryY=0;entryDx=120;entryDy=30.5;entryPerimeter=0;" edge="1" parent="1" source="Vg_pcemnxjzKTwLoONJ--2" target="Vg_pcemnxjzKTwLoONJ--1">
          <mxGeometry relative="1" as="geometry" />
        </mxCell>
        <mxCell id="Vg_pcemnxjzKTwLoONJ--7" value="update" style="edgeLabel;html=1;align=center;verticalAlign=middle;resizable=0;points=[];" vertex="1" connectable="0" parent="Vg_pcemnxjzKTwLoONJ--6">
          <mxGeometry x="0.1009" y="-1" relative="1" as="geometry">
            <mxPoint x="6" y="-4" as="offset" />
          </mxGeometry>
        </mxCell>
        <mxCell id="Vg_pcemnxjzKTwLoONJ--8" style="edgeStyle=orthogonalEdgeStyle;rounded=0;orthogonalLoop=1;jettySize=auto;html=1;exitX=0;exitY=0;exitDx=120;exitDy=47;exitPerimeter=0;entryX=-0.019;entryY=0.587;entryDx=0;entryDy=0;entryPerimeter=0;" edge="1" parent="1" source="Vg_pcemnxjzKTwLoONJ--2" target="Vg_pcemnxjzKTwLoONJ--3">
          <mxGeometry relative="1" as="geometry" />
        </mxCell>
        <mxCell id="Vg_pcemnxjzKTwLoONJ--9" value="update" style="edgeLabel;html=1;align=center;verticalAlign=middle;resizable=0;points=[];" vertex="1" connectable="0" parent="Vg_pcemnxjzKTwLoONJ--8">
          <mxGeometry x="-0.0387" relative="1" as="geometry">
            <mxPoint y="-2" as="offset" />
          </mxGeometry>
        </mxCell>
      </root>
    </mxGraphModel>
  </diagram>
</mxfile>
